<svg id="Layer_1" data-name="Layer 1" xmlns="http://www.w3.org/2000/svg" viewBox="0 0 159.94 71.32"><path d="M260.6,396.59c-4.72,6.6-9.42,13.22-14.19,19.78a101.3,101.3,0,0,1-8.67,10.72,19.77,19.77,0,0,1-4.66,3.89c-2.93,1.62-5.37.48-6-2.8-.83-4.28.07-8.45.93-12.59a125.53,125.53,0,0,1,8.6-25.94c1.07-2.39,1.63-2.7,4.58-2.57-1.43,3.28-2.93,6.53-4.25,9.85a107.11,107.11,0,0,0-6.8,24.42,26.23,26.23,0,0,0-.13,5.53c.14,1.81.62,2,2.09,1a36.12,36.12,0,0,0,7.14-7.26c7-8.76,13.21-18.15,19.73-27.29,1.35-1.89,2.74-3.76,4.14-5.62.69-.91,1.58-1.59,2.77-1s1,1.77.67,2.8c-1.83,5.93-4.07,11.73-5.52,17.77-1,4.12-2,8.24-1.92,12.52,0,.22,0,.44.14,1.13.86-1.08,1.54-1.84,2.12-2.68,4.71-6.79,8.41-14.16,12.24-21.45,2.83-5.39,5.74-10.74,8.34-16.24,1.09-2.32,2.73-2.84,5.09-2.87-2.42,4.65-4.75,9.21-7.14,13.74-4.74,9-9.14,18.25-14.72,26.82a42.74,42.74,0,0,1-3.45,4.57c-1,1.1-2.18,2-3.77,1.48s-1.72-2-1.83-3.4c-.39-5.15.8-10.09,2.08-15,.8-3.1,1.74-6.17,2.62-9.25Z" transform="translate(-226.74 -360.39)"/><path d="M330,391.84c2.26,1,4.17,2.15,6.53,1.18a1.28,1.28,0,0,1,1.83.59,1.53,1.53,0,0,1-.67,1.88,4.7,4.7,0,0,1-3.55.91,11.58,11.58,0,0,1-6.55-2.63c-1-.87-1.28-.51-1.73.43-2,4.21-4.15,8.32-5.75,12.7-.38,1.05-.93,2-2.19,1.51s-1.13-1.54-.77-2.56a122.21,122.21,0,0,1,5.31-11.72c1.45-3,3.08-5.93,4.53-8.94,2.67-5.57,9.76-16.36,13.74-20.8a7.86,7.86,0,0,1,2.78-2.21c1.54-.62,2.64.17,2.56,1.82a7.73,7.73,0,0,1-1.41,3.63,76.33,76.33,0,0,1-11.9,14.95,20.34,20.34,0,0,0-4,6.1,11,11,0,0,0,4.24-2.27c.67-.49,1.28-1.06,1.94-1.58.88-.69,1.73-2.21,3-1s0,2.39-.92,3.31C335.08,389.16,332.64,390.43,330,391.84Z" transform="translate(-226.74 -360.39)"/><path d="M308.59,392.09c-.7.11-1.1.21-1.51.24a1.44,1.44,0,0,1-1.53-1,1.31,1.31,0,0,1,.62-1.69,8.82,8.82,0,0,1,5.51-1.23c1.32.16,1.89,1.39,1.36,2.72a14.42,14.42,0,0,1-2.12,3.08c-.31.42-1.37.85-.52,1.5.69.53,1.46,1.37,2.58.2a60.87,60.87,0,0,1,5-4.38,7.4,7.4,0,0,1,1.5-1,1.38,1.38,0,0,1,1.92.36,1.32,1.32,0,0,1-.28,1.79c-1.55,1.47-3.13,2.94-4.76,4.33a6,6,0,0,0-2.41,5.06c0,5.44-3,9.55-7.64,12.35-1.33.79-2.93,1.07-4.2-.1s-.86-2.66-.27-4c1.71-3.87,4.5-7,7.17-10.22.71-.85.85-1.23-.31-1.74-3.17-1.4-3.35-2.29-1.16-5Zm2.06,11.15a31.58,31.58,0,0,0-5.78,8.27A12.11,12.11,0,0,0,310.65,403.24Z" transform="translate(-226.74 -360.39)"/><path d="M285.47,399.73a10.89,10.89,0,0,1,2.82-6,1.43,1.43,0,0,1,2.06-.4,1.5,1.5,0,0,1,.39,2.2c-.65,1.14-1.32,2.26-1.92,3.42-.2.39-.52,1-.1,1.33s.91-.05,1.29-.26a72.72,72.72,0,0,0,7.7-5.21c1-.7,2.13-2,3.22-.73s-.41,2.26-1.33,3a63.72,63.72,0,0,1-7,5,9.64,9.64,0,0,1-2.92,1.32C287,404.07,285.36,402.71,285.47,399.73Z" transform="translate(-226.74 -360.39)"/><path d="M344.81,389a10.73,10.73,0,0,1,2.89-5.87,1.41,1.41,0,0,1,1.94-.3,1.44,1.44,0,0,1,.51,2c-.63,1.28-1.67,2.33-2.07,3.73-.1.37-.43.82,0,1.16s.8,0,1.16-.16a72.93,72.93,0,0,0,7.85-5.3c1-.68,2.11-2.06,3.21-.71s-.44,2.26-1.35,3a63.87,63.87,0,0,1-7.08,5.14,9.81,9.81,0,0,1-2.76,1.25C346.45,393.59,344.74,392.2,344.81,389Z" transform="translate(-226.74 -360.39)"/><path d="M353.87,377.44a1.71,1.71,0,0,1-1.78,1.59c-1,0-1.34-.76-1.33-1.56a1.44,1.44,0,0,1,1.6-1.51A1.49,1.49,0,0,1,353.87,377.44Z" transform="translate(-226.74 -360.39)"/><path d="M292.87,389.57a1.35,1.35,0,0,1-1.42-1.52,1.41,1.41,0,0,1,1.62-1.51,1.34,1.34,0,0,1,1.45,1.48A1.63,1.63,0,0,1,292.87,389.57Z" transform="translate(-226.74 -360.39)"/><path d="M386.56,362.24c-4,9.69-8.3,19.26-12,29.08a29.38,29.38,0,0,0-1.71,5.26c-.18,1-.75,1.86-2,1.54a1.61,1.61,0,0,1-1.17-2.24c.73-2.27,1.48-4.54,2.35-6.76,2-5,4-10,5.85-15.19-.92,1.25-1.84,2.51-2.77,3.76a101.88,101.88,0,0,1-7.34,9.47,10.3,10.3,0,0,1-3.18,2.58c-2,.91-3.63-.25-3.47-2.46.29-3.71,5-8.45,8.75-8.71.94-.06,1.21-.66,1.61-1.21q5.36-7.28,10.68-14.58a12.79,12.79,0,0,1,2.2-2.33C385.7,360.36,387.1,360.13,386.56,362.24Zm-22.22,23.38c.21.2,3.33-3.33,3.09-3.56S364.14,385.42,364.34,385.62Z" transform="translate(-226.74 -360.39)"/></svg>